<svg width="37" height="36" viewBox="0 0 37 36" fill="none" xmlns="http://www.w3.org/2000/svg">
<path d="M24.7678 16.5499C25.5075 16.5524 26.2341 16.7453 26.8778 17.11C25.9716 14.7645 24.4687 12.6962 22.5178 11.1099C22.4061 11.018 22.3137 10.905 22.2458 10.7774C22.1778 10.6497 22.1357 10.5099 22.1217 10.366C22.1078 10.2221 22.1224 10.0768 22.1646 9.93851C22.2068 9.80021 22.2758 9.67157 22.3678 9.55995C22.4597 9.44833 22.5727 9.3559 22.7003 9.28795C22.828 9.22 22.9678 9.17786 23.1117 9.16393C23.2556 9.15 23.4009 9.16456 23.5392 9.20677C23.6775 9.24899 23.8061 9.31802 23.9178 9.40995C27.9178 12.6599 29.6978 17.16 29.6978 19.95C29.6909 20.9364 29.3969 21.8996 28.8517 22.7218C28.3065 23.544 27.5338 24.1896 26.6278 24.5799C26.0414 24.864 25.3993 25.0143 24.7478 25.0199C24.1743 25.0478 23.6011 24.9589 23.0631 24.7587C22.525 24.5584 22.0332 24.251 21.6175 23.855C21.2017 23.459 20.8708 22.9827 20.6446 22.455C20.4185 21.9272 20.3019 21.3591 20.3019 20.7849C20.3019 20.2108 20.4185 19.6427 20.6446 19.1149C20.8708 18.5872 21.2017 18.1109 21.6175 17.7149C22.0332 17.3189 22.525 17.0115 23.0631 16.8112C23.6011 16.611 24.1743 16.5221 24.7478 16.5499H24.7678Z" fill="#7838A6"/>
<path d="M13.6281 16.55C14.368 16.5516 15.0948 16.7445 15.7381 17.11C14.8323 14.767 13.3334 12.6995 11.3881 11.11C11.2664 11.0223 11.1638 10.9105 11.0869 10.7816C11.0099 10.6528 10.9602 10.5095 10.9407 10.3607C10.9211 10.2119 10.9323 10.0607 10.9734 9.91633C11.0145 9.77198 11.0847 9.63758 11.1797 9.52139C11.2747 9.40519 11.3925 9.30967 11.5258 9.2407C11.6591 9.17173 11.8051 9.13077 11.9549 9.12034C12.1046 9.1099 12.2549 9.13022 12.3964 9.18004C12.538 9.22986 12.6679 9.30812 12.7781 9.41002C16.7781 12.66 18.5581 17.16 18.5581 19.95C18.5534 20.9253 18.268 21.8787 17.736 22.6962C17.204 23.5136 16.4479 24.1607 15.5581 24.56C14.9569 24.8524 14.2966 25.0029 13.6281 25C13.0546 25.0279 12.4815 24.939 11.9434 24.7388C11.4053 24.5385 10.9135 24.2311 10.4978 23.8351C10.0821 23.4391 9.75113 22.9628 9.52499 22.435C9.29886 21.9073 9.18225 21.3392 9.18225 20.765C9.18225 20.1909 9.29886 19.6227 9.52499 19.095C9.75113 18.5673 10.0821 18.091 10.4978 17.695C10.9135 17.299 11.4053 16.9915 11.9434 16.7913C12.4815 16.591 13.0546 16.5021 13.6281 16.53V16.55Z" fill="#7838A6"/>
</svg>
