<svg width="37" height="36" viewBox="0 0 37 36" fill="none" xmlns="http://www.w3.org/2000/svg">
<path d="M12.4881 16.5499C11.7484 16.5524 11.0217 16.7453 10.3781 17.11C11.2843 14.7645 12.7872 12.6962 14.7381 11.1099C14.8497 11.018 14.9422 10.905 15.0101 10.7774C15.0781 10.6497 15.1202 10.5099 15.1341 10.366C15.1481 10.2221 15.1335 10.0768 15.0913 9.93851C15.0491 9.80021 14.98 9.67157 14.8881 9.55995C14.7962 9.44833 14.6832 9.3559 14.5555 9.28795C14.4279 9.22 14.2881 9.17786 14.1442 9.16393C14.0002 9.15 13.855 9.16456 13.7167 9.20677C13.5784 9.24899 13.4497 9.31802 13.3381 9.40995C9.33811 12.6599 7.55811 17.16 7.55811 19.95C7.565 20.9364 7.85898 21.8996 8.40415 22.7218C8.94931 23.544 9.72209 24.1896 10.6281 24.5799C11.2145 24.864 11.8566 25.0143 12.5081 25.0199C13.0816 25.0478 13.6547 24.9589 14.1928 24.7587C14.7309 24.5584 15.2227 24.251 15.6384 23.855C16.0541 23.459 16.3851 22.9827 16.6112 22.455C16.8374 21.9272 16.954 21.3591 16.954 20.7849C16.954 20.2108 16.8374 19.6427 16.6112 19.1149C16.3851 18.5872 16.0541 18.1109 15.6384 17.7149C15.2227 17.3189 14.7309 17.0115 14.1928 16.8112C13.6547 16.611 13.0816 16.5221 12.5081 16.5499H12.4881Z" fill="#7838A6"/>
<path d="M23.6278 16.55C22.8879 16.5516 22.161 16.7445 21.5178 17.11C22.4235 14.767 23.9225 12.6995 25.8678 11.11C25.9895 11.0223 26.092 10.9105 26.169 10.7816C26.2459 10.6528 26.2957 10.5095 26.3152 10.3607C26.3347 10.2119 26.3236 10.0607 26.2825 9.91633C26.2413 9.77198 26.1711 9.63758 26.0761 9.52139C25.9811 9.40519 25.8633 9.30967 25.73 9.2407C25.5967 9.17173 25.4507 9.13077 25.301 9.12034C25.1513 9.1099 25.001 9.13022 24.8594 9.18004C24.7178 9.22986 24.588 9.30812 24.4778 9.41002C20.4778 12.66 18.6978 17.16 18.6978 19.95C18.7025 20.9253 18.9879 21.8787 19.5199 22.6962C20.0519 23.5136 20.8079 24.1607 21.6978 24.56C22.299 24.8524 22.9592 25.0029 23.6278 25C24.2012 25.0279 24.7744 24.939 25.3124 24.7388C25.8505 24.5385 26.3423 24.2311 26.7581 23.8351C27.1738 23.4391 27.5047 22.9628 27.7309 22.435C27.957 21.9073 28.0736 21.3392 28.0736 20.765C28.0736 20.1909 27.957 19.6227 27.7309 19.095C27.5047 18.5673 27.1738 18.091 26.7581 17.695C26.3423 17.299 25.8505 16.9915 25.3124 16.7913C24.7744 16.591 24.2012 16.5021 23.6278 16.53V16.55Z" fill="#7838A6"/>
</svg>
